<?xml version="1.0" encoding="UTF-8"?>
<svg width="384px" height="512px" viewBox="0 0 384 512" version="1.1" xmlns="http://www.w3.org/2000/svg" xmlns:xlink="http://www.w3.org/1999/xlink">
    <!-- Generator: Sketch 49.3 (51167) - http://www.bohemiancoding.com/sketch -->
    <title>icon</title>
    <desc>Created with Sketch.</desc>
    <defs></defs>
    <g id="Page-1" stroke="none" stroke-width="1" fill="none" fill-rule="evenodd">
        <g id="icon" fill-rule="nonzero">
            <path d="M384,112 L384,464 C384,490.51 362.51,512 336,512 L48,512 C21.49,512 0,490.51 0,464 L0,112 C0,85.49 21.49,64 48,64 L128,64 C128,28.71 156.71,0 192,0 C227.29,0 256,28.71 256,64 L336,64 C362.51,64 384,85.49 384,112 Z M192,40 C178.745,40 168,50.745 168,64 C168,77.255 178.745,88 192,88 C205.255,88 216,77.255 216,64 C216,50.745 205.255,40 192,40 Z M288,154 L288,134 C288,130.686292 285.313708,128 282,128 L102,128 C98.6862915,128 96,130.686292 96,134 L96,154 C96,157.313708 98.6862915,160 102,160 L282,160 C285.313708,160 288,157.313708 288,154 Z" id="Shape" fill="#64B5F6"></path>
            <path d="M159.857143,394.428571 L149.137054,394.428571 L161.005804,358.365179 L222.714286,358.365179 L234.583036,394.428571 L224.142857,394.428571 C220.197768,394.428571 217,397.626339 217,401.571429 L217,415.857143 C217,419.802232 220.197768,423 224.142857,423 L284.857143,423 C288.802232,423 292,419.802232 292,415.857143 L292,401.571429 C292,397.626339 288.802232,394.428571 284.857143,394.428571 L272.920089,394.428571 L214.988839,227.797321 C213.990303,224.925103 211.282805,222.999954 208.241964,223 L175.757143,223 C172.716302,222.999954 170.008804,224.925103 169.010268,227.797321 L111.079911,394.428571 L99.1428571,394.428571 C95.1977679,394.428571 92,397.626339 92,401.571429 L92,415.857143 C92,419.802232 95.1977679,423 99.1428571,423 L159.857143,423 C163.802232,423 167,419.802232 167,415.857143 L167,401.571429 C167,397.626339 163.802232,394.428571 159.857143,394.428571 Z M188.725844,273.498034 C190.665754,266.691139 191.674971,260.902414 192.110425,258 C192.484754,260.917177 193.421694,266.712612 195.557915,273.52577 L214,329 L170,329 L188.725844,273.498034 Z" id="Shape" fill="#FFFFFF"></path>
        </g>
    </g>
</svg>